# xmcd
#
# Track frame offsets: 
#        150
#        19102
#        39617
#        51170
#        69887
#        87520
#        107620
#        118865
#        138487
#        157240
#
# Disc length: 2396 seconds
#
# Revision: 2
# Processed by: cddbd v1.5.2PL0 Copyright (c) Steve Scherf et al.
# Submitted via: ExactAudioCopyFreeDBPlugin 1.0
#
DISCID=89095a0a
DTITLE=Dan Hill - Longer Fuse
DYEAR=1996
DGENRE=
TTITLE0=Sometimes When We Touch
TTITLE1=14 Today
TTITLE2=In The Name Of Love
TTITLE3=Crazy
TTITLE4=McCarthy´s Day
TTITLE5=Jean
TTITLE6=You Are All I See
TTITLE7=Southern California
TTITLE8=Longer Fuse
TTITLE9=Still Not Used To
EXTD=
EXTT0=
EXTT1=
EXTT2=
EXTT3=
EXTT4=
EXTT5=
EXTT6=
EXTT7=
EXTT8=
EXTT9=
PLAYORDER=
